# xmcd CD database file
#
# Track frame offsets:
#	150
#	36170
#	67853
#	96876
#	132009
#	162126
#	179696
#	210578
#	241750
#	275069
#
# Disc length: 4327 seconds
#
# Revision: 0
# Processed by: cddbd v1.5.1PL0 Copyright (c) Steve Scherf et al.
# Submitted via: CDex 1.51
#
DISCID=8610e50a
DTITLE=El Gran Combo - Salsa Classics Revisited Vol 2
DYEAR=2003
DGENRE=Salsa
TTITLE0=Sabor A Pueblo (Salsa Remix)
TTITLE1=Aguacero (Salsa Remix)
TTITLE2=Azuquita Pal Café (Salsa Remix)
TTITLE3=Tributo A Perin Vazquez (Salsa Remix)
TTITLE4=Y No Haga Más Na (Salsa Remix)
TTITLE5=Brujería Feat. Yaga Y Mackie (Reggaeton Remix)
TTITLE6=Timbaero (Salsa Remix)
TTITLE7=Me Liberé (Salsa Remix)
TTITLE8=Con Eso (Salsa Remix)
TTITLE9=Medley Navideño (Salsa Remix)
EXTD=YEAR: 2003
EXTT0=
EXTT1=
EXTT2=
EXTT3=
EXTT4=
EXTT5=
EXTT6=
EXTT7=
EXTT8=
EXTT9=
PLAYORDER=
